<svg xmlns="http://www.w3.org/2000/svg" width="179" height="70" viewBox="0 0 179 70">
    <g fill="none">
        <circle cx="35" cy="35" r="35" fill="#FFF"/>
        <g fill="#231F20">
            <path d="M12.087.537h.466c2.082-.045 4.124.572 5.834 1.761 1.53 1.12 2.404 2.925 2.333 4.819.03 1.25-.342 2.477-1.062 3.5-.731 1.008-1.753 1.769-2.928 2.181 2.813.69 4.742 3.279 4.597 6.172.083 1.968-.785 3.857-2.334 5.075-1.885 1.346-4.174 2.005-6.486 1.867H.408V.537h11.679zm-.28 14.63H5.833v6.463h5.939c1.128.093 2.258-.168 3.231-.747.717-.602 1.092-1.518 1.004-2.45.082-.937-.291-1.858-1.004-2.473-.95-.605-2.073-.884-3.196-.793zm-.654-10.314h-5.32v5.997h5.285c1.112.084 2.223-.172 3.185-.735.706-.525 1.093-1.375 1.027-2.252.081-.902-.306-1.783-1.027-2.333-.962-.563-2.073-.82-3.185-.735l.035.058zM33.892.537h.548c2.273.002 4.517.512 6.568 1.493 1.927.955 3.518 2.472 4.562 4.352 1.106 2.088 1.653 4.427 1.587 6.79.063 2.366-.475 4.71-1.564 6.813-1.032 1.89-2.62 3.418-4.55 4.375-2.232 1.057-4.682 1.572-7.151 1.505h-9.847V.537h9.847zm-.397 4.526h-3.85v16.334h3.85c5.39 0 8.085-2.723 8.085-8.167s-2.695-8.167-8.085-8.167z" transform="translate(12.833 22.167)"/>
        </g>
        <path fill="#FFF" d="M124.413 44.73c.943-.019 1.878.18 2.73.583.841.438 1.53 1.122 1.972 1.96h.058v-2.146h4.13V59.92c-.025.732-.126 1.46-.303 2.17-.19.862-.59 1.664-1.167 2.333-.677.776-1.523 1.387-2.473 1.785-1.38.544-2.858.794-4.34.735-.787-.003-1.57-.101-2.333-.291-.78-.178-1.524-.482-2.205-.899-.653-.404-1.21-.945-1.634-1.586-.456-.697-.718-1.502-.758-2.334h4.317c.119.712.546 1.335 1.166 1.704.636.323 1.341.483 2.054.466 1.031.095 2.043-.324 2.706-1.12.582-.804.866-1.786.805-2.776v-2.089h-.058c-.446.823-1.152 1.475-2.007 1.855-.855.395-1.787.598-2.73.595-1.053.028-2.1-.188-3.056-.63-.83-.39-1.555-.974-2.112-1.703-.551-.764-.947-1.628-1.167-2.543-.26-1.002-.39-2.034-.385-3.069 0-1 .149-1.995.444-2.951.272-.91.711-1.76 1.295-2.509 1.22-1.532 3.093-2.398 5.051-2.333zm39.445-.035c.808.001 1.615.06 2.415.175.774.095 1.526.316 2.229.653.651.309 1.217.774 1.645 1.354.463.686.688 1.506.641 2.333v8.225c0 .686.043 1.372.129 2.053.038.512.185 1.009.431 1.459h-4.398c-.082-.245-.14-.49-.198-.747-.059-.257-.082-.513-.105-.782-.672.7-1.511 1.219-2.439 1.505-.935.28-1.905.42-2.881.42-.71.004-1.415-.086-2.1-.268-.625-.168-1.208-.462-1.715-.863-.501-.385-.902-.885-1.167-1.459-.295-.664-.438-1.385-.42-2.111-.025-.767.14-1.529.478-2.217.273-.55.673-1.025 1.167-1.388.517-.36 1.094-.625 1.703-.782.64-.176 1.291-.313 1.949-.408.653-.11 1.295-.19 1.925-.245.566-.054 1.127-.147 1.68-.28.425-.086.824-.27 1.166-.537.296-.254.445-.64.397-1.027.028-.401-.048-.803-.222-1.166-.142-.267-.356-.49-.618-.642-.272-.16-.574-.263-.887-.303-.358-.06-.721-.087-1.085-.082-.714-.037-1.421.155-2.018.548-.528.465-.837 1.13-.852 1.832l-4.27.035c.023-.898.29-1.773.77-2.532.435-.664 1.018-1.22 1.704-1.621.724-.418 1.512-.714 2.333-.875.861-.167 1.736-.253 2.613-.257zm-13.101-4.305v4.737h3.115v2.905h-3.174v7.816c-.162.52-.023 1.087.361 1.474.384.386.95.528 1.471.37.233.012.467.012.7 0 .216-.018.43-.05.642-.094v3.36c-.386.068-.776.111-1.167.129h-1.307c-.64 0-1.279-.043-1.913-.129-.557-.081-1.094-.263-1.587-.536-.469-.273-.846-.68-1.085-1.167-.29-.599-.426-1.26-.396-1.925v-9.333h-2.637v-2.87h2.637V40.39h4.34zm-53.422-1.283c1.34-.012 2.67.213 3.932.665 1.185.433 2.26 1.122 3.15 2.018.924.959 1.632 2.105 2.076 3.36.529 1.526.782 3.134.747 4.748.01 1.488-.194 2.97-.607 4.399-.367 1.283-.999 2.475-1.855 3.5-.84 1.001-1.898 1.799-3.091 2.333-1.374.589-2.858.875-4.352.84H87.92V39.107h9.415zm81.165 0v21.816h-4.34V39.107h4.34zm-63.84 6.02v15.796h-4.352V45.127h4.352zm26.507 0v15.796h-4.34V45.127h4.34zm25.293 8.061c-.197.174-.427.305-.677.385-.293.1-.593.178-.898.234l-.992.151-1.038.152c-.324.058-.644.14-.957.245-.294.096-.573.233-.828.408-.235.177-.426.404-.56.665-.295.629-.295 1.355 0 1.984.13.258.327.476.572.63.265.158.558.265.863.315.33.067.667.098 1.003.093.688.04 1.374-.11 1.984-.432.432-.24.794-.59 1.05-1.015.209-.359.348-.755.408-1.166.041-.325.064-.653.07-.98v-1.669zm-41.067-5.226c-.548-.013-1.09.116-1.575.373-.435.243-.81.582-1.096.992-.302.434-.52.92-.642 1.435-.124.57-.178 1.154-.163 1.738.002.568.057 1.134.163 1.692.11.534.307 1.046.583 1.516.276.442.647.817 1.085 1.097.507.304 1.09.454 1.68.432.566 0 1.123-.14 1.622-.409.458-.234.857-.57 1.167-.98.313-.416.547-.886.688-1.388.152-.531.227-1.081.222-1.633.003-.62-.055-1.237-.175-1.844-.111-.55-.32-1.076-.619-1.551-.29-.45-.692-.815-1.166-1.062-.545-.29-1.157-.431-1.774-.408zm-29.248-4.795h-3.43v13.731h4.282c.687 0 1.369-.114 2.018-.338.667-.24 1.264-.64 1.738-1.167.527-.587.925-1.279 1.167-2.03.33-.984.488-2.018.467-3.056.006-1.005-.103-2.007-.327-2.987-.173-.846-.532-1.643-1.05-2.333-.496-.591-1.129-1.052-1.843-1.342-.965-.36-1.993-.523-3.022-.478zm18.515-4.06v3.57h-4.352v-3.57h4.352zm26.507 0v3.57h-4.34v-3.57h4.34zm-24.839-22.622c.808-.003 1.615.052 2.415.163.775.107 1.53.327 2.24.654.634.32 1.182.789 1.599 1.365.463.686.688 1.506.641 2.333v8.167c0 .682.043 1.364.129 2.041.034.515.177 1.016.42 1.47h-4.399c-.083-.244-.15-.493-.198-.746 0-.257-.082-.514-.105-.782-.658.703-1.486 1.225-2.403 1.517-.93.289-1.897.434-2.87.431-.714.006-1.425-.088-2.112-.28-.624-.164-1.207-.454-1.715-.851-.497-.394-.896-.897-1.167-1.47-.285-.663-.424-1.38-.408-2.1-.032-.767.129-1.529.467-2.217.275-.55.674-1.03 1.166-1.4.523-.354 1.104-.614 1.715-.77.638-.175 1.284-.315 1.937-.42.653-.109 1.295-.19 1.925-.245.566-.049 1.127-.139 1.68-.268.423-.093.82-.276 1.167-.537.295-.254.444-.64.396-1.027.025-.402-.056-.804-.233-1.166-.142-.264-.351-.486-.607-.642-.274-.155-.575-.257-.886-.303-.36-.048-.722-.072-1.085-.07-.715-.044-1.424.149-2.019.548-.55.472-.863 1.165-.851 1.89h-4.305c.036-.9.314-1.775.805-2.532.442-.662 1.028-1.217 1.715-1.621.723-.421 1.512-.717 2.333-.875.86-.172 1.736-.258 2.613-.257zm-18.141-5.6c.956-.009 1.91.085 2.846.28.786.156 1.535.46 2.205.898.61.424 1.101.999 1.424 1.669.354.808.525 1.684.501 2.566.032.972-.228 1.931-.746 2.754-.568.784-1.333 1.404-2.217 1.796 1.212.306 2.278 1.029 3.01 2.042.678 1.039 1.024 2.26.992 3.5.026.991-.194 1.974-.642 2.858-.413.784-1.004 1.46-1.727 1.972-.75.53-1.587.926-2.473 1.167-.933.246-1.893.372-2.858.373H87.92V10.885h10.267zm47.005 5.6c.788-.012 1.574.09 2.333.303.678.181 1.305.517 1.832.98.527.479.928 1.08 1.166 1.75.31.836.456 1.723.432 2.614v10.535h-4.34V22.26c-.044-.406-.158-.8-.338-1.167-.188-.348-.471-.636-.817-.828-.449-.222-.947-.326-1.447-.303-.517-.025-1.03.096-1.481.35-.371.224-.677.542-.887.921-.226.396-.373.832-.432 1.284-.07.479-.105.962-.105 1.446v8.704h-4.34V22.412c-.01-.436-.097-.866-.256-1.272-.15-.382-.415-.708-.759-.933-.481-.263-1.027-.384-1.575-.35-.277.011-.551.058-.816.14-.36.104-.694.283-.98.525-.351.297-.627.672-.805 1.096-.246.595-.361 1.236-.339 1.879v9.17h-4.34V16.905h3.967v2.147c.556-.79 1.287-1.44 2.135-1.902.85-.454 1.802-.683 2.765-.665.945-.014 1.881.181 2.742.572.858.429 1.527 1.16 1.878 2.053.52-.735 1.182-1.358 1.948-1.832.851-.547 1.848-.823 2.859-.793zm-26.309 8.493c-.2.174-.435.305-.688.385-.29.096-.586.17-.887.222-.315.07-.641.117-.991.163-.35.047-.689.082-1.039.152-.328.058-.652.14-.968.245-.295.086-.571.224-.817.408-.235.175-.43.398-.571.654-.15.316-.223.664-.21 1.015-.01.338.062.675.21.98.137.253.338.467.583.618.26.162.55.273.852.327.335.06.674.092 1.015.093.687.035 1.372-.114 1.983-.432.43-.245.788-.599 1.038-1.026.211-.359.35-.755.409-1.167.05-.324.077-.652.081-.98v-1.657zM98 22.995h-5.285v5.985h5.145c.44-.001.877-.048 1.307-.14.417-.067.814-.222 1.166-.455.33-.217.599-.514.782-.863.201-.443.297-.926.28-1.412.09-.906-.262-1.8-.945-2.403-.718-.497-1.578-.747-2.45-.712zm-.782-8.377h-4.503v5.099h4.865c.75.03 1.491-.183 2.112-.607.582-.487.89-1.227.828-1.983.018-.438-.079-.872-.28-1.26-.176-.312-.43-.573-.735-.759-.322-.193-.679-.324-1.05-.385-.408-.07-.822-.105-1.237-.105z"/>
    </g>
</svg>
